<svg width="2297" height="770" xmlns="http://www.w3.org/2000/svg" xmlns:xlink="http://www.w3.org/1999/xlink" overflow="hidden"><g transform="translate(-629 -615)"><path d="M2551 1072 2630 1072 2630 1353 2551 1353Z" fill="#00357A" fill-rule="evenodd"/><path d="M2551 754 2630 754 2630 990 2551 990Z" fill="#00357A" fill-rule="evenodd"/><g><g><g><path d="M370.132 769.465 599 540.598 827.868 769.465 898.5 698.833 599 399.333 299.5 698.833Z" fill="#00357A" transform="matrix(6.12323e-17 1 -1.00167 6.13346e-17 3323.5 454.5)"/></g></g></g><g><g><g><path d="M369.761 768.695 598.4 540.056 827.039 768.695 897.6 698.133 598.4 398.933 299.2 698.133Z" fill="#FF2828" transform="matrix(6.12937e-17 1.001 -1 6.12323e-17 3077.44 454.5)"/></g></g></g><path d="M2015 1116 2346 1116 2346 1213 2015 1213Z" fill="#FF2828" fill-rule="evenodd"/><path d="M2307 1116 2386 1116 2386 1353 2307 1353Z" fill="#FF2828" fill-rule="evenodd"/><path d="M2307 754 2386 754 2386 990 2307 990Z" fill="#FF2828" fill-rule="evenodd"/><path d="M1512.8 835.474 1494.35 883.801 1531.26 883.801ZM888.365 835.474 869.911 883.801 906.82 883.801ZM1627.95 774 1669 774 1669 906.188 1744 906.188 1744 946.223 1627.95 946.223ZM1493.64 774 1531.97 774 1592.89 933.549 1597.74 946.223 1555.04 946.223 1543.33 915.545 1482.28 915.545 1470.57 946.223 1427.87 946.223 1432.72 933.549ZM1136.18 774 1169.78 774 1221.48 889.131 1273.18 774 1306.77 774 1306.77 946.223 1265.72 946.223 1265.72 872.193 1233.9 946.223 1209.06 946.223 1177.23 872.193 1177.23 946.223 1136.18 946.223ZM1054.5 774 1095.55 774 1095.55 898.37C1095.55 912.663 1090.85 924.508 1081.47 933.905 1072.08 943.302 1060.06 948 1045.39 948 1030.72 948 1018.69 943.302 1009.31 933.905 999.921 924.508 995.229 912.663 995.229 898.37L995.229 882.143 1031.43 882.143 1031.43 902.042C1031.43 905.28 1032.61 907.846 1034.98 909.741 1037.19 911.4 1039.83 912.229 1042.9 912.229 1046.06 912.229 1048.74 911.36 1050.95 909.623 1053.31 907.728 1054.5 905.201 1054.5 902.042ZM869.201 774 907.53 774 968.454 933.549 973.304 946.223 930.598 946.223 918.886 915.545 857.844 915.545 846.133 946.223 803.427 946.223 808.277 933.549ZM630 774 660.994 774 731.974 870.89 731.974 774 773.024 774 773.024 946.223 742.029 946.223 671.05 849.333 671.05 946.223 630 946.223Z" fill="#00357A" fill-rule="evenodd"/><path d="M1568.68 1124.76 1568.68 1165.69 1596.38 1165.69C1601.27 1165.69 1605.14 1163.57 1607.98 1159.31 1610.51 1155.44 1611.77 1150.75 1611.77 1145.23 1611.77 1139.71 1610.51 1135.02 1607.98 1131.15 1605.14 1126.89 1601.27 1124.76 1596.38 1124.76ZM1412.38 1089.39 1393.92 1137.66 1430.85 1137.66ZM1047.28 1089.39 1028.81 1137.66 1065.75 1137.66ZM671.077 1067.98 671.077 1160.02 676.996 1160.02C691.044 1160.02 702.25 1155.88 710.616 1147.6 718.902 1139.24 723.046 1128.04 723.046 1114 723.046 1099.96 718.902 1088.8 710.616 1080.52 702.25 1072.16 691.044 1067.98 676.996 1067.98ZM1568.68 1062.31 1568.68 1094.24 1593.54 1094.24C1597.25 1094.24 1600.17 1092.59 1602.3 1089.28 1604.27 1086.28 1605.26 1082.61 1605.26 1078.28 1605.26 1073.94 1604.27 1070.27 1602.3 1067.27 1600.17 1063.96 1597.25 1062.31 1593.54 1062.31ZM1772.93 1028 1814.01 1028 1814.01 1094.01 1866.8 1094.01 1866.8 1028 1908 1028 1908 1200 1866.8 1200 1866.8 1133.99 1814.01 1133.99 1814.01 1200 1772.93 1200ZM1688.19 1028 1729.27 1028 1729.27 1200 1688.19 1200ZM1527.6 1028 1593.54 1028C1609.64 1028 1622.46 1032.77 1632.01 1042.31 1640.54 1050.83 1644.8 1061.28 1644.8 1073.66 1644.72 1080.76 1642.43 1087.74 1637.93 1094.6 1633.04 1101.93 1626.88 1106.78 1619.47 1109.15 1629.02 1111.75 1636.87 1117.43 1643.02 1126.18 1648.55 1134.23 1651.31 1142.67 1651.31 1151.5 1651.15 1164.67 1646.5 1175.79 1637.34 1184.86 1627.16 1194.95 1613.51 1200 1596.38 1200L1527.6 1200ZM1393.2 1028 1431.56 1028 1492.52 1187.34 1497.38 1200 1454.64 1200 1442.92 1169.36 1381.84 1169.36 1370.12 1200 1327.39 1200 1332.24 1187.34ZM1162.5 1028 1203.58 1028 1203.58 1094.01 1256.38 1094.01 1256.38 1028 1297.57 1028 1297.57 1200 1256.38 1200 1256.38 1133.99 1203.58 1133.99 1203.58 1200 1162.5 1200ZM1028.1 1028 1066.46 1028 1127.42 1187.34 1132.28 1200 1089.54 1200 1077.82 1169.36 1016.74 1169.36 1005.02 1200 962.283 1200 967.137 1187.34ZM797.399 1028 838.476 1028 838.476 1094.01 891.273 1094.01 891.273 1028 932.469 1028 932.469 1200 891.273 1200 891.273 1133.99 838.476 1133.99 838.476 1200 797.399 1200ZM630 1028 676.996 1028C702.093 1028 722.691 1036.08 738.79 1052.25 754.968 1068.34 763.058 1088.92 763.058 1114 763.058 1139.08 754.968 1159.66 738.79 1175.75 722.691 1191.92 702.093 1200 676.996 1200L630 1200Z" fill="#FF2828" fill-rule="evenodd"/><path d="M1998.69 1313.28C1996.17 1313.28 1993.92 1313.32 1991.92 1313.39 1989.92 1313.47 1988.1 1313.58 1986.47 1313.72L1986.47 1339.69 1998.69 1339.69C2004.02 1339.69 2008.36 1338.51 2011.69 1336.15 2015.02 1333.8 2016.69 1330.41 2016.69 1325.99 2016.69 1322.31 2015.13 1319.27 2012.02 1316.87 2008.91 1314.48 2004.47 1313.28 1998.69 1313.28ZM1312.03 1313.28C1309.51 1313.28 1307.25 1313.32 1305.25 1313.39 1303.25 1313.47 1301.44 1313.58 1299.81 1313.72L1299.81 1339.69 1312.03 1339.69C1317.36 1339.69 1321.69 1338.51 1325.02 1336.15 1328.36 1333.8 1330.02 1330.41 1330.02 1325.99 1330.02 1322.31 1328.47 1319.27 1325.36 1316.87 1322.25 1314.48 1317.8 1313.28 1312.03 1313.28ZM847.519 1313.28C845.001 1313.28 842.742 1313.32 840.743 1313.39 838.743 1313.47 836.929 1313.58 835.3 1313.72L835.3 1339.69 847.519 1339.69C852.85 1339.69 857.182 1338.51 860.515 1336.15 863.847 1333.8 865.513 1330.41 865.513 1325.99 865.513 1322.31 863.958 1319.27 860.848 1316.87 857.738 1314.48 853.295 1313.28 847.519 1313.28ZM1699.42 1313.06C1695.35 1313.06 1691.7 1313.85 1688.48 1315.44 1685.26 1317.02 1682.54 1319.19 1680.32 1321.96 1678.1 1324.72 1676.41 1327.98 1675.26 1331.73 1674.12 1335.49 1673.54 1339.54 1673.54 1343.89 1673.54 1347.87 1674.12 1351.73 1675.26 1355.49 1676.41 1359.25 1678.1 1362.56 1680.32 1365.44 1682.54 1368.31 1685.26 1370.61 1688.48 1372.34 1691.7 1374.07 1695.35 1374.94 1699.42 1374.94 1703.72 1374.94 1707.48 1374.15 1710.7 1372.56 1713.92 1370.98 1716.62 1368.81 1718.81 1366.04 1720.99 1363.28 1722.64 1360 1723.75 1356.21 1724.86 1352.42 1725.42 1348.31 1725.42 1343.89 1725.42 1339.91 1724.82 1336.08 1723.64 1332.4 1722.45 1328.71 1720.75 1325.44 1718.53 1322.56 1716.31 1319.69 1713.59 1317.39 1710.36 1315.66 1707.14 1313.93 1703.5 1313.06 1699.42 1313.06ZM1883.6 1305.33 1930.25 1305.33 1930.25 1314.39 1894.15 1314.39 1894.15 1337.92 1925.25 1337.92 1925.25 1346.76 1894.15 1346.76 1894.15 1373.61 1930.25 1373.61 1930.25 1382.67 1883.6 1382.67ZM1544.59 1305.33 1559.36 1305.33 1580.91 1354.28 1602.13 1305.33 1617.24 1305.33 1617.24 1382.67 1606.68 1382.67 1606.68 1318.7 1585.91 1365.22 1575.47 1365.22 1554.59 1318.7 1554.59 1382.67 1544.59 1382.67ZM1388.79 1305.33 1435.45 1305.33 1435.45 1314.39 1399.35 1314.39 1399.35 1337.92 1430.45 1337.92 1430.45 1346.76 1399.35 1346.76 1399.35 1373.61 1435.45 1373.61 1435.45 1382.67 1388.79 1382.67ZM1182.28 1305.33 1192.83 1305.33 1192.83 1351.62C1192.83 1359.06 1194.33 1364.79 1197.33 1368.81 1200.33 1372.82 1204.91 1374.83 1211.05 1374.83 1217.35 1374.83 1222.05 1372.86 1225.16 1368.92 1228.27 1364.98 1229.82 1359.21 1229.82 1351.62L1229.82 1305.33 1240.04 1305.33 1240.04 1352.84C1240.04 1357.7 1239.36 1362.07 1237.99 1365.93 1236.62 1369.8 1234.66 1373.08 1232.1 1375.77 1229.55 1378.46 1226.49 1380.5 1222.94 1381.9 1219.38 1383.3 1215.42 1384 1211.05 1384 1202.02 1384 1194.96 1381.37 1189.89 1376.1 1184.82 1370.83 1182.28 1363.23 1182.28 1353.28ZM1084.18 1305.33 1142.5 1305.33 1142.5 1314.61 1118.61 1314.61 1118.61 1382.67 1108.06 1382.67 1108.06 1314.61 1084.18 1314.61ZM1032.48 1305.33 1043.03 1305.33 1043.03 1382.67 1032.48 1382.67ZM924.285 1305.33 938.281 1305.33 972.604 1369.64 972.604 1305.33 982.601 1305.33 982.601 1382.67 968.827 1382.67 934.282 1318.81 934.282 1382.67 924.285 1382.67ZM717.773 1305.33 728.326 1305.33 728.326 1351.62C728.326 1359.06 729.826 1364.79 732.825 1368.81 735.824 1372.82 740.396 1374.83 746.543 1374.83 752.837 1374.83 757.539 1372.86 760.65 1368.92 763.76 1364.98 765.315 1359.21 765.315 1351.62L765.315 1305.33 775.534 1305.33 775.534 1352.84C775.534 1357.7 774.849 1362.07 773.479 1365.93 772.109 1369.8 770.147 1373.08 767.592 1375.77 765.037 1378.46 761.983 1380.5 758.428 1381.9 754.874 1383.3 750.912 1384 746.543 1384 737.508 1384 730.455 1381.37 725.382 1376.1 720.31 1370.83 717.773 1363.23 717.773 1353.28ZM630 1305.33 676.098 1305.33 676.098 1314.39 640.552 1314.39 640.552 1338.03 670.21 1338.03 670.21 1346.65 640.552 1346.65 640.552 1382.67 630 1382.67ZM1998.69 1304.44C2003.43 1304.44 2007.58 1304.94 2011.13 1305.93 2014.69 1306.93 2017.65 1308.35 2020.02 1310.19 2022.39 1312.03 2024.18 1314.2 2025.41 1316.71 2026.63 1319.21 2027.24 1321.97 2027.24 1324.99 2027.24 1330.37 2025.63 1334.7 2022.41 1337.98 2019.19 1341.26 2014.54 1343.71 2008.47 1345.33 2009.95 1345.99 2011.32 1346.74 2012.58 1347.59 2013.84 1348.44 2015.02 1349.47 2016.13 1350.69 2017.24 1351.9 2018.33 1353.36 2019.41 1355.05 2020.48 1356.74 2021.57 1358.81 2022.68 1361.24L2031.13 1379.36 2021.24 1384 2011.58 1363.01C2009.13 1357.78 2006.06 1354.06 2002.36 1351.85 1998.66 1349.64 1993.92 1348.53 1988.14 1348.53L1986.47 1348.53 1986.47 1382.67 1975.92 1382.67 1975.92 1305.55C1979.92 1305.18 1983.68 1304.9 1987.2 1304.72 1990.71 1304.53 1994.55 1304.44 1998.69 1304.44ZM1312.03 1304.44C1316.77 1304.44 1320.91 1304.94 1324.47 1305.93 1328.02 1306.93 1330.98 1308.35 1333.35 1310.19 1335.72 1312.03 1337.52 1314.2 1338.74 1316.71 1339.96 1319.21 1340.57 1321.97 1340.57 1324.99 1340.57 1330.37 1338.96 1334.7 1335.74 1337.98 1332.52 1341.26 1327.87 1343.71 1321.8 1345.33 1323.28 1345.99 1324.65 1346.74 1325.91 1347.59 1327.17 1348.44 1328.36 1349.47 1329.47 1350.69 1330.58 1351.9 1331.67 1353.36 1332.74 1355.05 1333.82 1356.74 1334.91 1358.81 1336.02 1361.24L1344.46 1379.36 1334.58 1384 1324.91 1363.01C1322.47 1357.78 1319.4 1354.06 1315.69 1351.85 1311.99 1349.64 1307.25 1348.53 1301.47 1348.53L1299.81 1348.53 1299.81 1382.67 1289.26 1382.67 1289.26 1305.55C1293.26 1305.18 1297.01 1304.9 1300.53 1304.72 1304.05 1304.53 1307.88 1304.44 1312.03 1304.44ZM847.519 1304.44C852.258 1304.44 856.405 1304.94 859.959 1305.93 863.514 1306.93 866.476 1308.35 868.846 1310.19 871.215 1312.03 873.011 1314.2 874.233 1316.71 875.455 1319.21 876.066 1321.97 876.066 1324.99 876.066 1330.37 874.455 1334.7 871.234 1337.98 868.013 1341.26 863.366 1343.71 857.293 1345.33 858.774 1345.99 860.144 1346.74 861.403 1347.59 862.662 1348.44 863.847 1349.47 864.958 1350.69 866.069 1351.9 867.161 1353.36 868.234 1355.05 869.308 1356.74 870.401 1358.81 871.511 1361.24L879.953 1379.36 870.067 1384 860.404 1363.01C857.96 1357.78 854.887 1354.06 851.184 1351.85 847.481 1349.64 842.742 1348.53 836.966 1348.53L835.3 1348.53 835.3 1382.67 824.747 1382.67 824.747 1305.55C828.746 1305.18 832.504 1304.9 836.022 1304.72 839.539 1304.53 843.372 1304.44 847.519 1304.44ZM1784.06 1304.11 1808.5 1371.18 1833.05 1304.44 1842.6 1308.09 1814.16 1382.67 1802.28 1382.67 1773.73 1308.09ZM2099.12 1304C2103.71 1304 2107.82 1304.46 2111.45 1305.38 2115.08 1306.3 2118.67 1307.61 2122.22 1309.3L2118.33 1318.25C2115.82 1316.78 2112.87 1315.55 2109.5 1314.55 2106.14 1313.56 2102.6 1313.06 2098.9 1313.06 2094.01 1313.06 2090.16 1314 2087.34 1315.88 2084.53 1317.76 2083.12 1320.24 2083.12 1323.34 2083.12 1324.81 2083.33 1326.12 2083.73 1327.26 2084.14 1328.4 2084.96 1329.51 2086.18 1330.57 2087.4 1331.64 2089.1 1332.73 2091.29 1333.83 2093.47 1334.94 2096.38 1336.15 2100.01 1337.48 2104.3 1339.1 2107.93 1340.76 2110.89 1342.45 2113.85 1344.15 2116.22 1345.95 2118 1347.87 2119.78 1349.78 2121.06 1351.85 2121.83 1354.06 2122.61 1356.27 2123 1358.7 2123 1361.35 2123 1364.96 2122.3 1368.16 2120.89 1370.96 2119.48 1373.76 2117.54 1376.14 2115.06 1378.09 2112.58 1380.04 2109.6 1381.51 2106.12 1382.51 2102.64 1383.5 2098.86 1384 2094.79 1384 2089.38 1384 2084.46 1383.28 2080.01 1381.85 2075.57 1380.41 2071.83 1378.51 2068.79 1376.15L2074.13 1367.31C2076.79 1369.52 2079.79 1371.33 2083.12 1372.73 2086.46 1374.13 2090.34 1374.83 2094.79 1374.83 2100.12 1374.83 2104.34 1373.72 2107.45 1371.51 2110.56 1369.3 2112.11 1366.32 2112.11 1362.56 2112.11 1361.02 2111.89 1359.58 2111.45 1358.25 2111 1356.93 2110.13 1355.66 2108.84 1354.44 2107.54 1353.23 2105.73 1352.01 2103.4 1350.8 2101.06 1349.58 2098.04 1348.27 2094.34 1346.87 2090.34 1345.33 2086.96 1343.8 2084.18 1342.29 2081.4 1340.78 2079.16 1339.12 2077.46 1337.31 2075.75 1335.51 2074.53 1333.52 2073.79 1331.35 2073.05 1329.18 2072.68 1326.69 2072.68 1323.89 2072.68 1321.16 2073.26 1318.59 2074.4 1316.15 2075.55 1313.72 2077.25 1311.61 2079.51 1309.8 2081.77 1308 2084.55 1306.58 2087.84 1305.55 2091.14 1304.52 2094.9 1304 2099.12 1304ZM1699.42 1304C1705.12 1304 1710.25 1305.05 1714.81 1307.15 1719.36 1309.25 1723.21 1312.1 1726.36 1315.71 1729.51 1319.32 1731.93 1323.54 1733.64 1328.36 1735.34 1333.19 1736.19 1338.36 1736.19 1343.89 1736.19 1349.41 1735.36 1354.61 1733.69 1359.47 1732.02 1364.33 1729.6 1368.59 1726.42 1372.23 1723.23 1375.88 1719.38 1378.75 1714.86 1380.85 1710.35 1382.95 1705.2 1384 1699.42 1384 1693.65 1384 1688.5 1382.95 1683.98 1380.85 1679.47 1378.75 1675.63 1375.88 1672.49 1372.23 1669.34 1368.59 1666.93 1364.33 1665.27 1359.47 1663.6 1354.61 1662.77 1349.41 1662.77 1343.89 1662.77 1338.22 1663.6 1332.95 1665.27 1328.09 1666.93 1323.23 1669.34 1319.01 1672.49 1315.44 1675.63 1311.86 1679.47 1309.06 1683.98 1307.04 1688.5 1305.01 1693.65 1304 1699.42 1304Z" fill="#545454" fill-rule="evenodd"/></g></svg>